<svg width="1440" height="588" viewBox="0 0 1440 588" fill="none" xmlns="http://www.w3.org/2000/svg">
<rect width="1440" height="588" fill="#E5E5E5"/>
<g clip-path="url(#clip0)">
<rect width="1440" height="588" fill="white"/>
<rect width="1440" height="597" fill="#2B2D42"/>
<path d="M535.797 180.403L514.788 230.437L539.585 243.697L577.909 206.398L535.797 180.403Z" fill="black" fill-opacity="0.13"/>
<path d="M536.585 179.126C536.212 178.896 535.757 178.84 535.339 178.974C534.922 179.108 534.584 179.418 534.414 179.822L513.405 229.856C513.105 230.57 513.398 231.395 514.081 231.76L538.878 245.02C539.454 245.328 540.163 245.228 540.631 244.772L578.955 207.473C579.286 207.15 579.45 206.693 579.4 206.234C579.349 205.775 579.09 205.364 578.697 205.121L536.585 179.126Z" stroke="white" stroke-opacity="0.22" stroke-width="3" stroke-linejoin="round"/>
<path d="M109.874 453.022L102.318 471.016L111.236 475.785L125.019 462.371L109.874 453.022Z" fill="black" fill-opacity="0.13"/>
<path d="M110.662 451.745C110.289 451.515 109.834 451.46 109.416 451.593C108.999 451.727 108.661 452.037 108.491 452.441L100.935 470.435C100.636 471.149 100.928 471.974 101.611 472.339L110.529 477.108C111.105 477.416 111.814 477.316 112.282 476.86L126.065 463.446C126.396 463.123 126.56 462.666 126.51 462.207C126.459 461.747 126.2 461.337 125.807 461.094L110.662 451.745Z" stroke="white" stroke-opacity="0.22" stroke-width="3" stroke-linejoin="round"/>
<path d="M302.156 342.731L290.327 370.904L304.289 378.37L325.868 357.368L302.156 342.731Z" fill="black" fill-opacity="0.13"/>
<path d="M302.944 341.455C302.571 341.225 302.116 341.169 301.698 341.303C301.281 341.437 300.943 341.746 300.773 342.151L288.944 370.323C288.644 371.037 288.937 371.861 289.619 372.227L303.581 379.693C304.158 380.001 304.867 379.901 305.335 379.445L326.914 358.443C327.245 358.121 327.409 357.664 327.359 357.204C327.308 356.745 327.049 356.334 326.656 356.092L302.944 341.455Z" stroke="white" stroke-opacity="0.22" stroke-width="3" stroke-linejoin="round"/>
<path d="M1304.48 236.247L1352.12 262.24L1367.83 238.921L1334.63 197L1304.48 236.247Z" fill="black" fill-opacity="0.13"/>
<path d="M1303.29 235.333C1303.02 235.681 1302.92 236.128 1303.01 236.557C1303.1 236.986 1303.38 237.354 1303.76 237.564L1351.4 263.557C1352.08 263.927 1352.93 263.72 1353.36 263.078L1369.08 239.76C1369.44 239.218 1369.41 238.502 1369.01 237.99L1335.8 196.069C1335.52 195.706 1335.08 195.497 1334.62 195.5C1334.15 195.503 1333.72 195.72 1333.44 196.086L1303.29 235.333Z" stroke="white" stroke-opacity="0.22" stroke-width="3" stroke-linejoin="round"/>
<path d="M561.929 298.955L411.028 263.917L385.664 340.064L509.076 429.945L561.929 298.955Z" fill="black" fill-opacity="0.13"/>
<path d="M563.32 299.516C563.484 299.11 563.462 298.652 563.26 298.263C563.057 297.874 562.695 297.593 562.268 297.494L411.367 262.456C410.613 262.281 409.849 262.708 409.605 263.443L384.241 339.59C384.035 340.21 384.253 340.892 384.781 341.277L508.193 431.158C508.567 431.43 509.045 431.515 509.489 431.387C509.933 431.26 510.294 430.935 510.467 430.507L563.32 299.516Z" stroke="white" stroke-opacity="0.22" stroke-width="3" stroke-linejoin="round"/>
<path d="M1310.45 -112.404L1113.3 71.7299L1198.76 182.319L1448.51 91.166L1310.45 -112.404Z" fill="black" fill-opacity="0.13"/>
<path d="M1311.69 -113.246C1311.44 -113.609 1311.05 -113.846 1310.62 -113.895C1310.18 -113.944 1309.75 -113.8 1309.43 -113.5L1112.28 70.6337C1111.71 71.1622 1111.64 72.0345 1112.12 72.6471L1197.58 183.236C1197.98 183.753 1198.66 183.952 1199.28 183.728L1449.02 92.5751C1449.45 92.4167 1449.79 92.0669 1449.93 91.6271C1450.07 91.1874 1450.01 90.7066 1449.75 90.3241L1311.69 -113.246Z" stroke="white" stroke-opacity="0.22" stroke-width="3" stroke-linejoin="round"/>
<path d="M1059.37 107L1015 161.361L1050.11 186L1113 146.891L1059.37 107Z" fill="black" fill-opacity="0.13"/>
<path d="M1060.27 105.796C1059.62 105.318 1058.72 105.43 1058.21 106.052L1013.84 160.413C1013.57 160.736 1013.46 161.154 1013.51 161.567C1013.57 161.979 1013.8 162.35 1014.14 162.589L1049.25 187.228C1049.74 187.573 1050.39 187.591 1050.9 187.274L1113.79 148.165C1114.21 147.903 1114.48 147.449 1114.5 146.953C1114.52 146.458 1114.29 145.984 1113.9 145.688L1060.27 105.796Z" stroke="white" stroke-opacity="0.22" stroke-width="3" stroke-linejoin="round"/>
<path d="M507.807 483L482 514.653L502.421 529L539 506.228L507.807 483Z" fill="black" fill-opacity="0.13"/>
<path d="M508.703 481.797C508.059 481.317 507.152 481.43 506.645 482.052L480.837 513.706C480.574 514.028 480.457 514.446 480.514 514.859C480.571 515.271 480.797 515.641 481.138 515.881L501.559 530.227C502.051 530.573 502.703 530.591 503.214 530.273L539.793 507.501C540.214 507.239 540.478 506.786 540.499 506.29C540.519 505.795 540.294 505.321 539.896 505.025L508.703 481.797Z" stroke="white" stroke-opacity="0.22" stroke-width="3" stroke-linejoin="round"/>
<path d="M327.844 449.004L337.241 470.641L350.018 463.968L348.035 439.16L327.844 449.004Z" fill="black" fill-opacity="0.13"/>
<path d="M327.187 447.656C326.465 448.008 326.149 448.866 326.469 449.602L335.865 471.238C336.031 471.62 336.348 471.916 336.741 472.055C337.133 472.194 337.566 472.163 337.935 471.97L350.712 465.297C351.246 465.019 351.561 464.448 351.513 463.848L349.53 439.041C349.491 438.546 349.209 438.104 348.779 437.858C348.348 437.612 347.823 437.595 347.378 437.812L327.187 447.656Z" stroke="white" stroke-opacity="0.22" stroke-width="3" stroke-linejoin="round"/>
<path d="M1015.2 218L1113 327.411L1035.61 377L897 298.287L1015.2 218Z" fill="black" fill-opacity="0.13"/>
<path d="M1014.36 216.759C1014.98 216.337 1015.82 216.44 1016.32 217L1114.12 326.411C1114.41 326.739 1114.55 327.178 1114.49 327.614C1114.43 328.049 1114.18 328.437 1113.81 328.674L1036.42 378.263C1035.95 378.563 1035.36 378.579 1034.87 378.304L896.259 299.591C895.809 299.336 895.522 298.865 895.501 298.347C895.48 297.829 895.728 297.337 896.157 297.046L1014.36 216.759Z" stroke="white" stroke-opacity="0.22" stroke-width="3" stroke-linejoin="round"/>
<path d="M601.5 377L544 446.5L589.5 478L671 428L601.5 377Z" fill="black" fill-opacity="0.13"/>
<path d="M602.387 375.791C601.747 375.321 600.851 375.432 600.344 376.044L542.844 445.544C542.576 445.868 542.457 446.289 542.514 446.705C542.571 447.121 542.801 447.494 543.146 447.733L588.646 479.233C589.135 479.572 589.778 479.589 590.284 479.279L671.784 429.279C672.21 429.017 672.478 428.561 672.499 428.062C672.519 427.563 672.29 427.086 671.887 426.791L602.387 375.791Z" stroke="white" stroke-opacity="0.22" stroke-width="3" stroke-linejoin="round"/>
<path d="M377 116.464L435.213 86.4393L503.089 149.321L424.28 177.591L377 116.464Z" fill="black" fill-opacity="0.13"/>
<path d="M376.312 115.131C375.917 115.335 375.632 115.704 375.536 116.139C375.439 116.574 375.541 117.029 375.813 117.382L423.094 178.509C423.491 179.023 424.175 179.223 424.787 179.003L503.595 150.733C504.089 150.556 504.454 150.135 504.558 149.621C504.663 149.108 504.493 148.577 504.108 148.221L436.233 85.3389C435.769 84.9097 435.087 84.8167 434.526 85.1062L376.312 115.131Z" stroke="white" stroke-opacity="0.22" stroke-width="3" stroke-linejoin="round"/>
<path d="M1284 536.424L1313.74 478.066L1405.56 489.503L1358.07 558.459L1284 536.424Z" fill="black" fill-opacity="0.13"/>
<path d="M1282.66 535.743C1282.46 536.14 1282.45 536.606 1282.62 537.015C1282.8 537.425 1283.15 537.735 1283.57 537.862L1357.64 559.897C1358.27 560.082 1358.94 559.845 1359.31 559.31L1406.79 490.354C1407.09 489.923 1407.14 489.367 1406.93 488.889C1406.71 488.411 1406.26 488.08 1405.74 488.015L1313.93 476.577C1313.3 476.499 1312.69 476.822 1312.4 477.384L1282.66 535.743Z" stroke="white" stroke-opacity="0.22" stroke-width="3" stroke-linejoin="round"/>
<path d="M744 585V447.923L926 382L902.989 555.701L744 585Z" fill="black" fill-opacity="0.13"/>
<path d="M742.5 585C742.5 585.445 742.698 585.868 743.04 586.153C743.383 586.438 743.834 586.556 744.272 586.475L903.26 557.176C903.9 557.058 904.39 556.542 904.476 555.898L927.487 382.197C927.556 381.678 927.349 381.16 926.94 380.831C926.532 380.503 925.982 380.411 925.489 380.59L743.489 446.512C742.895 446.727 742.5 447.291 742.5 447.923V585Z" stroke="white" stroke-opacity="0.22" stroke-width="3" stroke-linejoin="round"/>
<path d="M696.87 525.391L635.105 553.346L590 542.457L688.263 462L696.87 525.391Z" fill="black" fill-opacity="0.13"/>
<path d="M697.489 526.757C698.093 526.484 698.446 525.846 698.357 525.189L689.749 461.798C689.676 461.26 689.318 460.803 688.812 460.604C688.307 460.405 687.733 460.495 687.313 460.839L589.05 541.297C588.609 541.657 588.411 542.236 588.538 542.791C588.665 543.346 589.095 543.782 589.648 543.915L634.753 554.805C635.077 554.883 635.419 554.851 635.723 554.713L697.489 526.757Z" stroke="white" stroke-opacity="0.22" stroke-width="3" stroke-linejoin="round"/>
<path d="M1235.12 227.127L1258.09 329.893L1227.27 395.038L1136 220.167L1235.12 227.127Z" fill="black" fill-opacity="0.13"/>
<path d="M1236.58 226.8C1236.44 226.153 1235.88 225.678 1235.22 225.631L1136.11 218.671C1135.56 218.633 1135.04 218.891 1134.75 219.345C1134.45 219.799 1134.42 220.379 1134.67 220.861L1225.94 395.732C1226.2 396.237 1226.73 396.549 1227.3 396.538C1227.87 396.527 1228.38 396.194 1228.63 395.68L1259.45 330.535C1259.59 330.233 1259.63 329.892 1259.56 329.566L1236.58 226.8Z" stroke="white" stroke-opacity="0.22" stroke-width="3" stroke-linejoin="round"/>
<path d="M651.667 75.8436L687.643 133.308L682.894 179.465L590 92.8638L651.667 75.8436Z" fill="black" fill-opacity="0.13"/>
<path d="M652.938 75.0477C652.586 74.4855 651.907 74.2212 651.268 74.3977L589.601 91.4179C589.077 91.5624 588.673 91.9789 588.543 92.5065C588.414 93.0342 588.58 93.5905 588.977 93.961L681.871 180.562C682.287 180.95 682.888 181.069 683.421 180.869C683.954 180.669 684.328 180.185 684.386 179.619L689.136 133.462C689.17 133.13 689.092 132.795 688.915 132.512L652.938 75.0477Z" stroke="white" stroke-opacity="0.22" stroke-width="3" stroke-linejoin="round"/>
<path d="M1259.57 464.863L1136.07 421.953L1015 471.685L1175.99 633.136L1259.57 464.863Z" fill="black" fill-opacity="0.13"/>
<path d="M1260.06 463.446C1260.47 463.587 1260.79 463.897 1260.96 464.296C1261.12 464.695 1261.1 465.144 1260.91 465.53L1177.33 633.803C1177.12 634.236 1176.71 634.538 1176.23 634.616C1175.75 634.694 1175.27 634.537 1174.93 634.195L1013.94 472.744C1013.58 472.389 1013.43 471.881 1013.53 471.389C1013.63 470.898 1013.97 470.488 1014.43 470.298L1135.5 420.565C1135.83 420.426 1136.21 420.416 1136.56 420.536L1260.06 463.446Z" stroke="white" stroke-opacity="0.22" stroke-width="3" stroke-linejoin="round"/>
<path d="M520 99.9646L527.706 70.5669L544 58V115L520 99.9646Z" fill="black" fill-opacity="0.13"/>
<path d="M518.549 99.5842C518.383 100.219 518.648 100.888 519.204 101.236L543.204 116.271C543.666 116.561 544.249 116.577 544.726 116.312C545.204 116.048 545.5 115.546 545.5 115V58C545.5 57.4282 545.175 56.9061 544.662 56.6539C544.149 56.4016 543.537 56.463 543.084 56.8122L526.79 69.3792C526.528 69.5818 526.34 69.8657 526.255 70.1866L518.549 99.5842Z" stroke="white" stroke-opacity="0.22" stroke-width="3" stroke-linejoin="round"/>
<path d="M336.666 294.136L332.568 278.726L336.508 269L350.995 295.27L336.666 294.136Z" fill="black" fill-opacity="0.13"/>
<path d="M335.216 294.521C335.38 295.136 335.913 295.581 336.548 295.631L350.877 296.765C351.427 296.809 351.957 296.547 352.256 296.083C352.555 295.619 352.575 295.029 352.309 294.546L337.822 268.276C337.542 267.769 336.996 267.468 336.419 267.503C335.841 267.537 335.335 267.901 335.118 268.437L331.178 278.163C331.056 278.464 331.035 278.797 331.119 279.112L335.216 294.521Z" stroke="white" stroke-opacity="0.22" stroke-width="3" stroke-linejoin="round"/>
<path d="M252 447.394L244.615 424.701L229 415V459L252 447.394Z" fill="black" fill-opacity="0.13"/>
<path d="M253.426 446.929C253.655 447.633 253.337 448.399 252.676 448.733L229.676 460.339C229.211 460.574 228.657 460.55 228.214 460.277C227.77 460.004 227.5 459.521 227.5 459V415C227.5 414.455 227.795 413.954 228.271 413.689C228.747 413.424 229.329 413.438 229.792 413.726L245.406 423.427C245.707 423.613 245.932 423.9 246.041 424.237L253.426 446.929Z" stroke="white" stroke-opacity="0.22" stroke-width="3" stroke-linejoin="round"/>
<path d="M1337.98 393.849L1303.23 340.774L1306.54 298L1394.8 377.82L1337.98 393.849Z" fill="black" fill-opacity="0.13"/>
<path d="M1336.72 394.671C1337.08 395.219 1337.76 395.471 1338.39 395.293L1395.2 379.264C1395.73 379.116 1396.13 378.694 1396.26 378.163C1396.38 377.631 1396.21 377.074 1395.8 376.708L1307.54 296.887C1307.12 296.504 1306.51 296.395 1305.98 296.607C1305.45 296.818 1305.09 297.314 1305.04 297.884L1301.73 340.659C1301.71 340.989 1301.79 341.319 1301.97 341.596L1336.72 394.671Z" stroke="white" stroke-opacity="0.22" stroke-width="3" stroke-linejoin="round"/>
<path d="M882.118 196.436L754.804 124.85L716.19 34L981.216 103.548L882.118 196.436Z" fill="black" fill-opacity="0.13"/>
<path d="M881.383 197.744C881.953 198.065 882.666 197.978 883.144 197.531L982.242 104.642C982.64 104.269 982.805 103.708 982.67 103.179C982.536 102.65 982.125 102.235 981.597 102.097L716.57 32.5491C716.017 32.4039 715.429 32.5862 715.055 33.0191C714.681 33.452 714.585 34.0601 714.809 34.5868L753.423 125.437C753.553 125.742 753.78 125.995 754.069 126.157L881.383 197.744Z" stroke="white" stroke-opacity="0.22" stroke-width="3" stroke-linejoin="round"/>
</g>
<defs>
<clipPath id="clip0">
<rect width="1440" height="588" fill="white"/>
</clipPath>
</defs>
</svg>
